<?xml version="1.0" encoding="iso-8859-1"?>
<!-- Generator: Adobe Illustrator 19.0.0, SVG Export Plug-In . SVG Version: 6.00 Build 0)  -->
<svg version="1.1" id="Layer_1" xmlns="http://www.w3.org/2000/svg" xmlns:xlink="http://www.w3.org/1999/xlink" x="0px" y="0px"
	 viewBox="0 0 512 512" style="enable-background:new 0 0 512 512;" xml:space="preserve">
<g>
	<g>
		<g>
			<path d="M395.74,126.571l14.963-19.825c9.55-12.649,0.508-30.834-15.357-30.834h-86.907V52.438
				C308.44,23.524,284.916,0,256.001,0s-52.439,23.524-52.439,52.439v23.474h-86.907c-15.848,0-24.916,18.173-15.357,30.834
				l14.963,19.825C66.9,167.822,37.957,229.029,37.957,293.957C37.957,414.186,135.771,512,256,512s218.043-97.814,218.043-218.043
				C474.044,229.027,445.102,167.821,395.74,126.571z M222.804,114.395v0.001c10.626,0,19.241-8.615,19.241-19.241V52.439
				c0-7.695,6.261-13.956,13.956-13.956s13.956,6.261,13.956,13.956v42.716c0,10.626,8.615,19.241,19.241,19.241h67.517
				c-8.397,11.125-5.427,1.63-15.475,79.129c-45.42-28.205-44.745-28.909-52.054-28.909c-8.124,0-15.371,5.102-18.112,12.748
				l-15.076,42.051l-15.083-42.054c-1.961-5.471-6.291-9.76-11.78-11.674c-11.524-4.018-15.22,1.039-58.374,27.837
				c-10.05-77.526-7.09-68.019-15.475-79.129H222.804z M256.001,473.517c-99.011,0-179.56-80.551-179.56-179.56
				c0-47.798,19.05-93.149,52.136-126.504l7.866,60.659c1.797,13.87,17.36,21.242,29.232,13.872l47.057-29.221l25.16,70.154
				c6.071,16.93,30.14,16.97,36.224-0.003l25.151-70.157l47.063,29.225c11.88,7.377,27.437-0.014,29.232-13.872l7.866-60.659
				c33.086,33.356,52.136,78.706,52.136,126.504C435.562,392.966,355.011,473.517,256.001,473.517z"/>
			<path d="M200.282,402.007c-18.375-9.721-34.01-24.14-45.21-41.7c-5.716-8.959-17.61-11.59-26.571-5.874
				c-8.959,5.715-11.588,17.611-5.874,26.57c14.779,23.165,35.408,42.191,59.659,55.02c9.392,4.968,21.036,1.385,26.005-8.011
				C213.261,418.62,209.674,406.977,200.282,402.007z"/>
		</g>
	</g>
</g>
<g>
</g>
<g>
</g>
<g>
</g>
<g>
</g>
<g>
</g>
<g>
</g>
<g>
</g>
<g>
</g>
<g>
</g>
<g>
</g>
<g>
</g>
<g>
</g>
<g>
</g>
<g>
</g>
<g>
</g>
</svg>
